<svg xmlns="http://www.w3.org/2000/svg" width="132" height="73" viewBox="0 0 132 73" fill="#2A328C">
<path fill-rule="evenodd" clip-rule="evenodd" d="M10.5101 65.7363C10.5101 66.8259 9.85697 67.6733 8.72877 67.8549C10.0945 68.097 10.9258 69.005 10.9258 70.3367C10.9258 71.971 9.61946 72.9395 7.48181 72.9395H3.44402V63.3151H7.42243C9.32256 63.3151 10.5101 64.2231 10.5101 65.7363ZM9.38194 65.8574C9.38194 64.8889 8.66939 64.3441 7.36305 64.3441H4.57222V67.4917H7.36305C8.66939 67.4917 9.38194 66.8864 9.38194 65.8574ZM9.7976 70.1551C9.7976 69.1261 8.90691 68.4602 7.36305 68.4602H4.57222V71.9105H7.36305C8.90691 71.9105 9.7976 71.3052 9.7976 70.1551Z" fill="#2A328C"/>
<path d="M16.4481 69.6103V72.9395H15.3792V69.6103L11.7571 63.3151H12.8853L15.9137 68.3391L18.942 63.3151H20.0702L16.4481 69.6103Z" fill="#2A328C"/>
<path fill-rule="evenodd" clip-rule="evenodd" d="M30.7584 70.4577H25.6518L24.583 72.9395H23.4548L27.6707 63.3151H28.7989L33.0148 72.9395H31.8273L30.7584 70.4577ZM30.3428 69.4287L28.2051 64.4652L26.0675 69.4287H30.3428Z" fill="#2A328C"/>
<path d="M35.4494 62.7098V72.9395H34.44V62.7098H35.4494Z" fill="#2A328C"/>
<path fill-rule="evenodd" clip-rule="evenodd" d="M48.5722 65.7363C48.5722 66.8259 47.8597 67.6733 46.7908 67.8549C48.1566 68.097 48.9285 69.005 48.9285 70.3367C48.9285 71.971 47.6815 72.9395 45.5439 72.9395H41.5061V63.3151H45.4845C47.3846 63.3151 48.5722 64.2231 48.5722 65.7363ZM47.444 65.8574C47.444 64.8889 46.7315 64.3441 45.4251 64.3441H42.5749V67.4917H45.4251C46.7315 67.4917 47.444 66.8864 47.444 65.8574ZM47.8597 70.1551C47.8597 69.1261 46.969 68.4602 45.4251 68.4602H42.5749V71.9105H45.4251C46.969 71.9105 47.8597 71.3052 47.8597 70.1551Z" fill="#2A328C"/>
<path fill-rule="evenodd" clip-rule="evenodd" d="M55.4008 72.9395V71.7894C54.8664 72.5763 53.9757 72.9395 52.8475 72.9395C51.363 72.9395 50.413 72.0315 50.413 70.7604C50.413 69.4893 51.4224 68.7023 53.085 68.7023H55.4008V68.2786C55.4008 67.1891 54.7477 66.5233 53.5007 66.5233C52.7288 66.5233 51.9568 66.8259 51.2443 67.3707L50.8286 66.6443C51.7193 66.039 52.4912 65.6758 53.6788 65.6758C55.4602 65.6758 56.4103 66.5838 56.4103 68.1576L56.4697 72.9395H55.4008ZM55.3414 70.4577V69.5498H53.1444C51.9568 69.5498 51.363 69.913 51.363 70.7604C51.363 71.5473 51.9568 72.0921 52.9663 72.0921C54.1539 72.0921 55.1039 71.4868 55.3414 70.4577Z" fill="#2A328C"/>
<path d="M62.4076 65.6758V66.7048C60.9231 66.6443 59.973 67.6128 59.8543 69.0655V72.9395H58.7855V65.6758H59.8543V67.3101C60.3293 66.2206 61.1606 65.6758 62.4076 65.6758Z" fill="#2A328C"/>
<path fill-rule="evenodd" clip-rule="evenodd" d="M67.8705 72.9395V71.7894C67.336 72.5763 66.386 72.9395 65.2578 72.9395C63.8327 72.9395 62.8826 72.0315 62.8826 70.7604C62.8826 69.4893 63.8327 68.7023 65.4953 68.7023H67.8705V68.2786C67.8705 67.1891 67.2173 66.5233 65.9703 66.5233C65.139 66.5233 64.4265 66.8259 63.7139 67.3707L63.2389 66.6443C64.1889 66.039 64.9609 65.6758 66.1485 65.6758C67.9298 65.6758 68.8799 66.5838 68.8799 68.1576V72.9395H67.8705ZM67.8705 70.4577V69.5498H65.6734C64.4858 69.5498 63.8327 69.913 63.8327 70.7604C63.8327 71.5473 64.4858 72.0921 65.4953 72.0921C66.6829 72.0921 67.6329 71.4868 67.8705 70.4577Z" fill="#2A328C"/>
<path d="M73.8678 69.2471L72.3833 70.8209V72.9395H71.3145V62.7098H72.3833V69.4287L76.0054 65.6758H77.2524L74.5803 68.4602L77.5493 72.9395H76.3023L73.8678 69.2471Z" fill="#2A328C"/>
<path fill-rule="evenodd" clip-rule="evenodd" d="M83.0122 72.9395V71.7894C82.4184 72.5763 81.5277 72.9395 80.3995 72.9395C78.915 72.9395 77.9649 72.0315 77.9649 70.7604C77.9649 69.4893 78.9744 68.7023 80.637 68.7023H82.9528V68.2786C82.9528 67.1891 82.2996 66.5233 81.0527 66.5233C80.2807 66.5233 79.5682 66.8259 78.7963 67.3707L78.3806 66.6443C79.2713 66.039 80.0432 65.6758 81.2902 65.6758C83.0122 65.6758 84.0216 66.5838 84.0216 68.1576V72.9395H83.0122ZM83.0122 70.4577V69.5498H80.8151C79.6276 69.5498 78.9744 69.913 78.9744 70.7604C78.9744 71.5473 79.6276 72.0921 80.637 72.0921C81.8246 72.0921 82.7153 71.4868 83.0122 70.4577Z" fill="#2A328C"/>
<path d="M93.5223 72.0315C95.3036 72.0315 96.3725 70.8814 96.3725 69.005V63.3151H97.4413V69.005C97.4413 71.4867 95.9568 73 93.5223 73C91.0284 73 89.6032 71.4867 89.6032 69.005V63.3151H90.6721V69.005C90.6721 70.8814 91.7409 72.0315 93.5223 72.0315Z" fill="#2A328C"/>
<path d="M106.467 68.4602V72.9395H105.398V68.7629C105.398 67.4312 104.626 66.7048 103.379 66.7048C102.014 66.7048 101.123 67.6733 101.004 69.0655V72.9395H99.9352V65.6758H101.004V67.3101C101.479 66.1601 102.429 65.6758 103.736 65.6758C105.458 65.6758 106.467 66.7048 106.467 68.4602Z" fill="#2A328C"/>
<path d="M109.97 63.6178C109.97 64.0415 109.673 64.3441 109.317 64.3441C108.901 64.3441 108.605 64.0415 108.605 63.6178C108.605 63.1941 108.901 62.8914 109.317 62.8914C109.673 62.8914 109.97 63.1941 109.97 63.6178ZM109.852 65.6758V72.9395H108.783V65.6758H109.852Z" fill="#2A328C"/>
<path d="M116.086 72.4552C115.552 72.7578 115.018 72.9394 114.424 72.9394C113.414 73 112.642 72.3341 112.642 70.9419V66.7653H111.633V65.9179H112.642V64.0414H113.711V65.9179H115.908V66.7653H113.711V70.7603C113.711 71.6078 114.008 71.9709 114.602 71.9709C114.998 71.9709 115.374 71.8499 115.73 71.6078L116.086 72.4552Z" fill="#2A328C"/>
<path fill-rule="evenodd" clip-rule="evenodd" d="M123.687 69.7314H117.868C118.046 71.1236 119.055 72.0921 120.421 72.0921C121.312 72.0921 122.084 71.7289 122.618 71.1236L123.212 71.7894C122.559 72.5158 121.549 72.9395 120.362 72.9395C118.283 72.9395 116.799 71.4867 116.799 69.3076C116.799 67.1285 118.283 65.6758 120.362 65.6758C122.618 65.6758 123.746 67.2496 123.687 69.7314ZM122.737 68.8839C122.618 67.4312 121.727 66.5233 120.362 66.5233C118.996 66.5233 117.987 67.4312 117.868 68.8839H122.737Z" fill="#2A328C"/>
<path fill-rule="evenodd" clip-rule="evenodd" d="M132 62.7098V72.9395H130.931V71.3657C130.397 72.3947 129.447 73 128.2 73C126.121 73 124.756 71.4262 124.756 69.3076C124.756 67.1285 126.121 65.6153 128.14 65.6153C129.447 65.6153 130.397 66.2206 130.931 67.2496V62.7098H132ZM130.931 69.3076C130.931 67.7338 129.862 66.5837 128.378 66.5837C126.893 66.5837 125.825 67.7338 125.825 69.3076C125.825 70.9419 126.893 72.0315 128.378 72.0315C129.862 72.0315 130.931 70.9419 130.931 69.3076Z" fill="#2A328C"/>
<path d="M64.4858 54.9013H75.471V13.7405L64.4858 23.0622V54.9013Z" fill="#2A328C"/>
<path d="M37.6464 0.847444C37.6464 1.04921 37.6464 1.27114 37.6464 1.51327C43.4062 2.66335 48.5722 5.32671 52.3725 9.01908H91.7409V0.847444H37.6464Z" fill="#2A328C"/>
<path d="M120.421 54.9013H132L124.993 38.9817H99.4008L106.704 20.5804L112.583 35.9552L119.887 26.6335L108.545 0H104.804L81.112 54.9013H92.6909L95.6599 48.0613H117.452L120.421 54.9013Z" fill="#2A328C"/>
<path d="M1.90013 20.9436C6.17544 10.7745 16.448 3.38973 28.027 3.69239C43.3468 3.38973 56.529 16.0406 56.2915 31.6575C56.529 47.0323 43.3468 59.9253 28.027 59.6832C13.1822 59.9253 0.534413 47.8797 0 33.0497H11.0445C11.8165 42.6136 18.8232 49.2114 28.027 49.2114C37.7058 49.2114 44.9501 41.8267 44.9501 31.6575C44.9501 21.2463 37.7058 13.801 28.027 13.801C18.8232 13.801 11.8165 20.3988 11.0445 30.0232L1.90013 20.9436Z" fill="#2A328C"/>
<path d="M129.15 27.6625C128.437 27.5414 127.368 27.5414 125.825 28.1467C125.825 28.1467 116.383 31.7786 113.296 32.9286C112.167 33.3524 110.98 30.5074 109.495 31.0522C109.02 31.2338 109.555 32.0812 109.852 33.0497C110.148 33.8366 110.386 34.684 110.505 34.9867C110.98 36.4394 112.464 36.2578 113.117 36.1368C114.721 35.9552 116.799 35.2288 119.946 34.0787C119.649 35.6525 118.58 40.616 118.521 40.9187C118.402 41.4635 119.352 41.1003 120.065 40.495C120.718 39.8897 121.134 39.0422 121.371 38.558C121.609 37.9527 123.628 34.0787 124.459 32.3839C124.657 32.3032 124.855 32.2225 125.053 32.1417C125.706 31.8996 131.109 29.8416 130.931 28.9336C130.872 28.3283 129.625 27.7835 129.15 27.6625Z" fill="#2A328C"/>
<path d="M117.69 30.6285L121.193 29.2363C119.768 28.6915 118.402 28.1468 118.105 28.0257C117.63 27.7836 116.74 27.4204 115.849 27.4204C114.899 27.4809 113.949 27.7836 114.424 28.1468C114.602 28.2678 116.205 29.4784 117.69 30.6285Z" fill="#2A328C"/>
</svg>