<svg width="236" height="56" viewBox="0 0 236 56" fill="none" xmlns="http://www.w3.org/2000/svg">
<g clip-path="url(#clip0_3360_134)">
<path d="M55.0352 30.4084H57.1077V33.9998H60.9258V30.4084H62.9983V39.766H60.9258V35.7288H57.1077V39.766H55.0352V30.4084Z" fill="white"/>
<path d="M64.7031 37.7458H66.7757V39.763H64.7031V37.7458Z" fill="white"/>
<path d="M73.5821 36.6569C73.5821 37.9006 74.5603 38.3859 75.6699 38.3859C76.3975 38.3859 77.5041 38.1766 77.5041 37.2211C77.5041 36.1989 76.0765 36.0563 74.704 35.6742C73.3039 35.3344 71.8916 34.7429 71.8916 33.014C71.8916 31.0879 73.7135 30.184 75.4193 30.184C77.3879 30.184 79.1976 31.0363 79.1976 33.199H77.1892C77.122 32.0858 76.3302 31.7825 75.3276 31.7825C74.6673 31.7825 73.9 32.0585 73.9 32.8441C73.9 33.566 74.3494 33.6692 76.7123 34.2607C77.4124 34.4184 79.5124 34.8764 79.5124 36.9876C79.5124 38.7044 78.1644 39.9874 75.5905 39.9874C73.5026 39.9874 71.537 38.9652 71.5768 36.66H73.5851L73.5821 36.6569Z" fill="white"/>
<path d="M83.314 30.4084H85.4416L88.9662 39.766H86.8141L86.1019 37.6822H82.5742L81.8345 39.766H79.7344L83.314 30.4084ZM83.1153 36.1474H85.5577L84.3686 32.7137H84.3411L83.1122 36.1474H83.1153Z" fill="white"/>
<path d="M97.7888 36.2262C97.7888 38.756 96.2848 39.9875 93.7598 39.9875C91.2348 39.9875 89.7461 38.7802 89.7461 36.2262V30.4084H91.8187V36.2262C91.8187 37.2484 92.0816 38.2585 93.7598 38.2585C95.2393 38.2585 95.7131 37.6306 95.7131 36.2262V30.4084H97.7857V36.2262H97.7888Z" fill="white"/>
<path d="M99.5742 30.4084H103.643C106.085 30.4084 107.923 31.9402 107.923 35.0342C107.923 37.7459 106.523 39.766 103.643 39.766H99.5742V30.4084ZM101.647 38.0341H103.496C104.698 38.0341 105.847 37.3 105.847 35.2283C105.847 33.3416 105.174 32.1344 103.126 32.1344H101.647V38.031V38.0341Z" fill="white"/>
<path d="M109.359 30.4084H111.432V39.766H109.359V30.4084Z" fill="white"/>
<path d="M118.341 36.6569C118.341 37.9006 119.319 38.3859 120.426 38.3859C121.153 38.3859 122.263 38.1766 122.263 37.2211C122.263 36.1989 120.835 36.0563 119.463 35.6742C118.063 35.3344 116.651 34.7429 116.651 33.014C116.651 31.0879 118.472 30.184 120.175 30.184C122.144 30.184 123.953 31.0363 123.953 33.199H121.945C121.878 32.0858 121.086 31.7825 120.083 31.7825C119.423 31.7825 118.656 32.0585 118.656 32.8441C118.656 33.566 119.105 33.6692 121.468 34.2607C122.168 34.4184 124.268 34.8764 124.268 36.9876C124.268 38.7044 122.92 39.9874 120.346 39.9874C118.258 39.9874 116.293 38.9652 116.333 36.66H118.341V36.6569Z" fill="white"/>
<path d="M125.5 30.4084H127.573V34.288L131.256 30.4084H133.845L130.162 34.1029L134.203 39.763H131.602L128.762 35.5559L127.573 36.7479V39.763H125.5V30.4054V30.4084Z" fill="white"/>
<path d="M135.037 30.4084H137.11V39.766H135.037V30.4084Z" fill="white"/>
<path d="M138.931 30.4084H141.003V38.034H145.598V39.763H138.928V30.4054L138.931 30.4084Z" fill="white"/>
<path d="M146.763 30.4084H148.835V38.034H153.43V39.763H146.76V30.4054L146.763 30.4084Z" fill="white"/>
<path d="M156.011 36.6569C156.011 37.9006 156.989 38.3859 158.099 38.3859C158.826 38.3859 159.936 38.1766 159.936 37.2211C159.936 36.1989 158.508 36.0563 157.136 35.6742C155.736 35.3344 154.323 34.7429 154.323 33.014C154.323 31.0879 156.145 30.184 157.851 30.184C159.82 30.184 161.629 31.0363 161.629 33.199H159.621C159.554 32.0858 158.762 31.7825 157.759 31.7825C157.099 31.7825 156.332 32.0585 156.332 32.8441C156.332 33.566 156.781 33.6692 159.144 34.2607C159.844 34.4184 161.944 34.8764 161.944 36.9876C161.944 38.7044 160.596 39.9874 158.022 39.9874C155.934 39.9874 153.969 38.9652 154.008 36.66H156.017L156.011 36.6569Z" fill="white"/>
<path d="M166.84 30.4084H168.912V39.766H166.84V30.4084Z" fill="white"/>
<path d="M170.734 30.4084H172.795L176.729 36.6843H176.756V30.4084H178.698V39.766H176.625L172.703 33.5024H172.675V39.766H170.734V30.4084Z" fill="white"/>
<path d="M181.936 36.6569C181.936 37.9006 182.914 38.3859 184.023 38.3859C184.751 38.3859 185.858 38.1766 185.858 37.2211C185.858 36.1989 184.43 36.0563 183.057 35.6742C181.657 35.3344 180.245 34.7429 180.245 33.014C180.245 31.0879 182.067 30.184 183.773 30.184C185.741 30.184 187.551 31.0363 187.551 33.199H185.543C185.475 32.0858 184.684 31.7825 183.681 31.7825C183.021 31.7825 182.254 32.0585 182.254 32.8441C182.254 33.566 182.703 33.6692 185.066 34.2607C185.766 34.4184 187.866 34.8764 187.866 36.9876C187.866 38.7044 186.518 39.9874 183.944 39.9874C181.856 39.9874 179.891 38.9652 179.93 36.66H181.939L181.936 36.6569Z" fill="white"/>
<path d="M191.183 32.1374H188.355V30.4084H196.08V32.1374H193.253V39.763H191.18V32.1374H191.183Z" fill="white"/>
<path d="M197.164 30.4084H199.237V39.766H197.164V30.4084Z" fill="white"/>
<path d="M203.148 32.1374H200.32V30.4084H208.045V32.1374H205.217V39.763H203.145V32.1374H203.148Z" fill="white"/>
<path d="M217.136 36.2262C217.136 38.756 215.629 39.9875 213.107 39.9875C210.586 39.9875 209.094 38.7802 209.094 36.2262V30.4084H211.166V36.2262C211.166 37.2484 211.429 38.2585 213.107 38.2585C214.587 38.2585 215.061 37.6306 215.061 36.2262V30.4084H217.133V36.2262H217.136Z" fill="white"/>
<path d="M221.005 32.1374H218.178V30.4084H225.902V32.1374H223.075V39.763H221.002V32.1374H221.005Z" fill="white"/>
<path d="M226.987 30.4084H234.04V32.1374H229.06V34.1424H233.63V35.7409H229.06V38.034H234.144V39.763H226.984V30.4054L226.987 30.4084Z" fill="white"/>
<path d="M63.6866 18.1996V21.5028C63.6866 21.5301 63.6897 21.5604 63.6958 21.5938H64.2124V22.9163H63.87L63.436 22.4431H63.4054C63.1425 22.7586 62.8093 22.9163 62.4027 22.9163H56.7169C56.2401 22.9163 55.8243 22.7646 55.4667 22.4643C54.9837 22.067 54.7422 21.5543 54.7422 20.9265V19.5827L55.5492 18.9366H56.3348V20.9265C56.3348 21.1388 56.4112 21.3087 56.561 21.4391C56.6772 21.5422 56.8117 21.5938 56.9645 21.5938H61.8861C61.9564 21.5938 62.0115 21.5695 62.0512 21.521C62.0787 21.4815 62.0909 21.4361 62.0909 21.3875V18.1965H63.6836L63.6866 18.1996ZM59.2205 23.3895C59.4467 23.3895 59.6393 23.4683 59.7952 23.6261C59.9511 23.7838 60.0275 23.9749 60.0275 24.1993C60.0275 24.4238 59.9511 24.6058 59.7952 24.7635C59.6393 24.9213 59.4498 25.0001 59.2205 25.0001C58.9913 25.0001 58.8109 24.9213 58.6519 24.7635C58.493 24.6058 58.4135 24.4177 58.4135 24.1993C58.4135 23.981 58.493 23.7808 58.6519 23.6261C58.8109 23.4683 59.0004 23.3895 59.2205 23.3895Z" fill="white"/>
<path d="M67.5851 18.1996V21.6454C67.5851 21.9457 67.4843 22.2156 67.2856 22.4552C67.0227 22.7646 66.6925 22.9163 66.2921 22.9163H64.1309V21.5938H65.8366C65.8794 21.5938 65.913 21.5847 65.9405 21.5635C65.9742 21.5362 65.9925 21.4998 65.9925 21.4512V18.1996H67.5851ZM64.9715 23.3895C65.1916 23.3895 65.3811 23.4684 65.5401 23.6261C65.699 23.7838 65.7785 23.9749 65.7785 24.1994C65.7785 24.4238 65.699 24.6058 65.5401 24.7636C65.3811 24.9213 65.1916 25.0001 64.9715 25.0001C64.7514 25.0001 64.5527 24.9213 64.3968 24.7636C64.2409 24.6058 64.1645 24.4178 64.1645 24.1994C64.1645 23.981 64.2409 23.7808 64.3968 23.6261C64.5527 23.4684 64.7422 23.3895 64.9715 23.3895ZM66.8209 23.3895C67.041 23.3895 67.2305 23.4684 67.3895 23.6261C67.5485 23.7838 67.6279 23.9749 67.6279 24.1994C67.6279 24.4238 67.5485 24.6058 67.3895 24.7636C67.2305 24.9213 67.041 25.0001 66.8209 25.0001C66.6008 25.0001 66.4021 24.9213 66.2462 24.7636C66.0903 24.6058 66.0139 24.4178 66.0139 24.1994C66.0139 23.981 66.0903 23.7808 66.2462 23.6261C66.4021 23.4684 66.5917 23.3895 66.8209 23.3895Z" fill="white"/>
<path d="M72.0837 18.1996V22.528C72.0837 23.4593 71.781 24.169 71.1727 24.6604C70.8212 24.9546 70.4054 25.1609 69.9225 25.2762C69.681 25.3308 69.412 25.3581 69.1154 25.3581L68.8464 25.3368L68.1953 24.527V23.984C68.2167 23.9901 68.2534 23.9961 68.3084 24.0052C68.4888 24.0386 68.6447 24.0568 68.7853 24.0568C69.3569 24.0416 69.7818 23.9021 70.057 23.6352C70.3382 23.3561 70.4819 22.9224 70.4819 22.343V18.1996H72.0837Z" fill="white"/>
<path d="M74.2416 18.1359C74.422 18.0964 74.6696 18.0752 74.9844 18.0752C75.8312 18.0752 76.5159 18.3391 77.0326 18.8638C77.4941 19.337 77.7265 19.9346 77.7265 20.6595V21.1631C77.7265 21.3541 77.7295 21.4997 77.7356 21.5938H77.9955V22.9163H77.861L77.4789 22.4431H77.4483C77.3871 22.5129 77.3321 22.5705 77.2832 22.616C77.0417 22.8071 76.7697 22.9072 76.467 22.9132H73.1992V21.5907H75.9902C76.088 21.5907 76.1338 21.5422 76.1338 21.4482V20.7809C76.1338 20.3623 76.0054 20.0225 75.7456 19.7556C75.4858 19.4887 75.1526 19.3552 74.7368 19.3552C74.5228 19.3552 74.3578 19.3704 74.2416 19.3977V18.1359Z" fill="white"/>
<path d="M81.3683 18.1996V21.5028C81.3683 21.5301 81.3714 21.5604 81.3775 21.5938H81.885V22.9163H81.564L81.1085 22.4431H81.0871C80.8242 22.7585 80.488 22.9163 80.0753 22.9163H77.9141V21.5938H79.5678C79.629 21.5938 79.6779 21.5725 79.7115 21.5331C79.7543 21.4997 79.7726 21.4512 79.7726 21.3905V18.1996H81.3653H81.3683ZM78.8647 15.9428C79.0848 15.9428 79.2744 16.0217 79.4333 16.1794C79.5923 16.3371 79.6718 16.5252 79.6718 16.7436C79.6718 16.962 79.5923 17.15 79.4333 17.3078C79.2744 17.4655 79.0848 17.5444 78.8647 17.5444C78.6447 17.5444 78.446 17.4655 78.2901 17.3078C78.1342 17.15 78.0577 16.962 78.0577 16.7436C78.0577 16.5252 78.1342 16.328 78.2901 16.1733C78.446 16.0186 78.6355 15.9428 78.8647 15.9428ZM80.7172 15.9428C80.9373 15.9428 81.1268 16.0217 81.2858 16.1794C81.4448 16.3371 81.5242 16.5252 81.5242 16.7436C81.5242 16.962 81.4448 17.15 81.2858 17.3078C81.1268 17.4655 80.9373 17.5444 80.7172 17.5444C80.4971 17.5444 80.2984 17.4655 80.1425 17.3078C79.9866 17.15 79.9102 16.962 79.9102 16.7436C79.9102 16.5252 79.9866 16.328 80.1425 16.1733C80.2984 16.0186 80.488 15.9428 80.7172 15.9428Z" fill="white"/>
<path d="M85.2657 15.5728V21.5028C85.2657 21.5301 85.2687 21.5604 85.2748 21.5938H85.7823V22.9163H85.4521L85.0089 22.4431H84.9875C84.7246 22.7585 84.3883 22.9163 83.9757 22.9163H81.8145V21.5938H83.5202C83.563 21.5938 83.5936 21.5847 83.6119 21.5634C83.6547 21.5361 83.673 21.4997 83.673 21.4512V15.5728H85.2657Z" fill="white"/>
<path d="M89.1633 15.5728V21.6453C89.1633 21.9456 89.0654 22.2156 88.8729 22.4552C88.61 22.7646 88.2768 22.9163 87.8702 22.9163H85.709V21.5938H87.4147C87.4575 21.5938 87.4911 21.5847 87.5187 21.5634C87.5523 21.5361 87.5706 21.4997 87.5706 21.4512V15.5728H89.1633Z" fill="white"/>
<path d="M94.082 21.1327V22.3339C94.082 22.9617 94.2288 23.4046 94.5253 23.6624C94.8218 23.9203 95.3292 24.0477 96.0445 24.0477C96.659 24.0477 97.1083 23.9627 97.3926 23.7959C97.6769 23.6291 97.8665 23.3348 97.9551 22.9193H97.4385L96.7568 22.0791V21.5968H100.086V22.9193H99.5783C99.4897 23.7959 99.0984 24.448 98.4106 24.8788C97.8787 25.2064 97.2428 25.3702 96.497 25.3702H95.586C94.724 25.3702 94.0178 25.1578 93.4676 24.7332C92.8134 24.2266 92.4863 23.4926 92.4863 22.528V21.7697L93.2934 21.1327H94.079H94.082ZM95.0663 25.9647C95.2864 25.9647 95.476 26.0435 95.6349 26.2013C95.7939 26.359 95.8734 26.5501 95.8734 26.7745C95.8734 26.999 95.7939 27.181 95.6349 27.3327C95.476 27.4874 95.2864 27.5632 95.0663 27.5632C94.8462 27.5632 94.6475 27.4874 94.4916 27.3327C94.3357 27.178 94.2593 26.9929 94.2593 26.7745C94.2593 26.5562 94.3357 26.356 94.4916 26.2013C94.6475 26.0435 94.8371 25.9647 95.0663 25.9647ZM96.9158 25.9647C97.1359 25.9647 97.3254 26.0435 97.4843 26.2013C97.6433 26.359 97.7228 26.5501 97.7228 26.7745C97.7228 26.999 97.6433 27.181 97.4843 27.3327C97.3254 27.4874 97.1359 27.5632 96.9158 27.5632C96.6957 27.5632 96.497 27.4874 96.3411 27.3327C96.1852 27.178 96.1087 26.9929 96.1087 26.7745C96.1087 26.5562 96.1852 26.356 96.3411 26.2013C96.497 26.0435 96.6865 25.9647 96.9158 25.9647Z" fill="white"/>
<path d="M102.487 15.5728V21.6453C102.487 21.9456 102.39 22.2156 102.197 22.4552C101.934 22.7646 101.601 22.9163 101.194 22.9163H99.0332V21.5938H100.739C100.782 21.5938 100.815 21.5847 100.843 21.5634C100.877 21.5361 100.895 21.4997 100.895 21.4512V15.5728H102.487Z" fill="white"/>
<path d="M105.508 15.5728V21.4512C105.508 21.4512 105.511 21.4846 105.517 21.5119L105.526 21.521C105.548 21.5695 105.587 21.5938 105.651 21.5938H106.034V22.9163H105.196C104.86 22.9163 104.563 22.798 104.306 22.5583C104.044 22.3066 103.912 22.0002 103.912 21.6453V15.5728H105.505H105.508Z" fill="white"/>
<path d="M107.387 20.1166C107.641 19.3643 108.09 18.8184 108.732 18.4756C109.188 18.2238 109.713 18.0964 110.312 18.0964C110.878 18.0964 111.389 18.2481 111.844 18.5484C112.394 18.8972 112.792 19.4189 113.033 20.1166L112.908 20.4351C112.749 20.523 112.538 20.6929 112.278 20.9386C112.03 21.1843 111.847 21.4027 111.731 21.5968H113.137V22.9193H110.707C110.542 22.9193 110.383 22.8374 110.23 22.6736H110.187C110.034 22.8374 109.866 22.9193 109.68 22.9193H105.947V21.5968H108.686C108.576 21.4057 108.396 21.1934 108.148 20.9598C107.879 20.6929 107.665 20.52 107.506 20.4381L107.381 20.1196L107.387 20.1166ZM111.389 20.0559C111.285 19.8102 111.092 19.6313 110.811 19.5221C110.64 19.4523 110.45 19.4189 110.242 19.4189C109.973 19.4189 109.732 19.4675 109.518 19.5615C109.276 19.6707 109.114 19.8345 109.032 20.0529C109.169 20.1348 109.365 20.3228 109.622 20.6171C109.912 20.9447 110.099 21.2116 110.181 21.4179H110.242C110.34 21.1782 110.542 20.8961 110.854 20.5655C111.08 20.3046 111.26 20.1348 111.392 20.0529L111.389 20.0559Z" fill="white"/>
<path d="M116.515 15.5728V21.6453C116.515 21.9456 116.417 22.2156 116.224 22.4552C115.962 22.7646 115.628 22.9163 115.222 22.9163H113.061V21.5938H114.766C114.809 21.5938 114.843 21.5847 114.87 21.5634C114.904 21.5361 114.922 21.4997 114.922 21.4512V15.5728H116.515Z" fill="white"/>
<path d="M119.536 15.5728V22.528L118.729 23.1741H117.943V15.5728H119.536Z" fill="white"/>
<path d="M127.33 17.9205V21.4482C127.33 21.4906 127.346 21.524 127.373 21.5513C127.401 21.5786 127.444 21.5938 127.499 21.5938H127.85V22.9163H127.034C126.682 22.9163 126.361 22.7798 126.071 22.5068C125.732 22.8435 125.325 23.0103 124.851 23.0103H124.821C124.13 23.0103 123.589 22.7252 123.198 22.158C122.88 21.7121 122.721 21.1843 122.721 20.5685C122.721 19.8163 122.962 19.1945 123.445 18.7C123.879 18.2542 124.42 18.0327 125.068 18.0327C125.42 18.0327 125.768 18.1055 126.114 18.2481L126.539 17.9205H127.334H127.33ZM124.665 15.9428C124.891 15.9428 125.087 16.0217 125.243 16.1794C125.402 16.3371 125.481 16.5252 125.481 16.7436C125.481 16.962 125.402 17.15 125.243 17.3078C125.084 17.4655 124.891 17.5444 124.665 17.5444C124.439 17.5444 124.255 17.4655 124.096 17.3078C123.937 17.15 123.858 16.962 123.858 16.7436C123.858 16.5252 123.937 16.328 124.096 16.1733C124.255 16.0186 124.445 15.9428 124.665 15.9428ZM125.729 19.4705C125.564 19.4311 125.408 19.4098 125.264 19.4098C124.961 19.4098 124.723 19.513 124.552 19.7192C124.381 19.9255 124.292 20.2076 124.292 20.5716C124.292 20.9143 124.387 21.1934 124.576 21.4118C124.766 21.6302 125.013 21.7394 125.316 21.7394C125.432 21.7394 125.57 21.7212 125.729 21.6878V19.4705ZM126.514 15.9428C126.741 15.9428 126.936 16.0217 127.092 16.1794C127.251 16.3371 127.33 16.5252 127.33 16.7436C127.33 16.962 127.251 17.15 127.092 17.3078C126.933 17.4655 126.741 17.5444 126.514 17.5444C126.288 17.5444 126.105 17.4655 125.952 17.3078C125.796 17.15 125.72 16.962 125.72 16.7436C125.72 16.5252 125.796 16.328 125.952 16.1733C126.108 16.0186 126.294 15.9428 126.514 15.9428Z" fill="white"/>
<path d="M131.228 18.1996V21.6454C131.228 21.9457 131.127 22.2156 130.928 22.4552C130.665 22.7646 130.335 22.9163 129.935 22.9163H127.773V21.5938H129.479C129.522 21.5938 129.556 21.5847 129.583 21.5635C129.617 21.5362 129.635 21.4998 129.635 21.4512V18.1996H131.228ZM128.611 23.3895C128.831 23.3895 129.021 23.4684 129.18 23.6261C129.339 23.7838 129.418 23.9749 129.418 24.1994C129.418 24.4238 129.339 24.6058 129.18 24.7636C129.021 24.9213 128.831 25.0001 128.611 25.0001C128.391 25.0001 128.192 24.9213 128.036 24.7636C127.88 24.6058 127.804 24.4178 127.804 24.1994C127.804 23.981 127.88 23.7808 128.036 23.6261C128.192 23.4684 128.382 23.3895 128.611 23.3895ZM130.464 23.3895C130.684 23.3895 130.873 23.4684 131.032 23.6261C131.191 23.7838 131.271 23.9749 131.271 24.1994C131.271 24.4238 131.191 24.6058 131.032 24.7636C130.873 24.9213 130.684 25.0001 130.464 25.0001C130.243 25.0001 130.045 24.9213 129.889 24.7636C129.733 24.6058 129.656 24.4178 129.656 24.1994C129.656 23.981 129.733 23.7808 129.889 23.6261C130.045 23.4684 130.234 23.3895 130.464 23.3895Z" fill="white"/>
<path d="M133.412 18.1359C133.592 18.0964 133.84 18.0752 134.154 18.0752C135.001 18.0752 135.686 18.3391 136.202 18.8638C136.664 19.337 136.896 19.9346 136.896 20.6595V21.6453C136.896 22.0215 136.759 22.3339 136.484 22.5796C136.236 22.804 135.946 22.9193 135.616 22.9193H132.369V21.5968H135.16C135.258 21.5968 135.304 21.5483 135.304 21.4542V20.7869C135.304 20.3683 135.175 20.0286 134.916 19.7617C134.656 19.4948 134.322 19.3613 133.907 19.3613C133.693 19.3613 133.528 19.3765 133.412 19.4038V18.1419V18.1359Z" fill="white"/>
<path d="M140.431 22.9163C139.7 22.9163 139.11 22.6584 138.664 22.1458C138.279 21.709 138.086 21.1843 138.086 20.5776C138.086 19.8042 138.288 19.2096 138.697 18.7941C139.174 18.3148 139.779 18.0752 140.516 18.0752C141.048 18.0752 141.494 18.1935 141.861 18.4331C142.411 18.7941 142.69 19.3158 142.69 19.9922V21.5938H143.02V22.9163H142.677C142.595 23.6685 142.292 24.257 141.766 24.6816C141.449 24.9486 141.057 25.1397 140.586 25.2549C140.269 25.3368 139.935 25.3793 139.584 25.3793C139.431 25.3793 139.275 25.3702 139.107 25.3489L138.413 24.5087V23.9536C138.731 24.0234 139.034 24.0568 139.324 24.0568C140.29 24.0568 140.862 23.6776 141.039 22.9193H140.428L140.431 22.9163ZM141.094 20.0043C141.094 19.792 141.014 19.6282 140.855 19.513C140.752 19.4371 140.635 19.4007 140.504 19.4007C140.25 19.4007 140.045 19.4978 139.889 19.6919C139.734 19.886 139.657 20.1439 139.657 20.4654C139.657 21.2177 140.033 21.5938 140.785 21.5938H141.094V20.0043Z" fill="white"/>
<path d="M144.38 20.1166C144.634 19.3643 145.083 18.8184 145.725 18.4756C146.181 18.2238 146.706 18.0964 147.306 18.0964C147.871 18.0964 148.382 18.2481 148.837 18.5484C149.387 18.8972 149.785 19.4189 150.026 20.1166L149.901 20.4351C149.742 20.523 149.531 20.6929 149.271 20.9386C149.024 21.1843 148.84 21.4027 148.724 21.5968H150.13V22.9193H147.7C147.535 22.9193 147.376 22.8374 147.223 22.6736H147.183C147.03 22.8374 146.862 22.9193 146.676 22.9193H142.943V21.5968H145.682C145.572 21.4057 145.392 21.1934 145.144 20.9598C144.875 20.6929 144.661 20.52 144.502 20.4381L144.377 20.1196L144.38 20.1166ZM148.382 20.0559C148.278 19.8102 148.085 19.6313 147.804 19.5221C147.633 19.4523 147.443 19.4189 147.235 19.4189C146.966 19.4189 146.725 19.4675 146.511 19.5615C146.269 19.6707 146.107 19.8345 146.025 20.0529C146.162 20.1348 146.358 20.3228 146.615 20.6171C146.905 20.9447 147.092 21.2116 147.174 21.4179H147.235C147.333 21.1782 147.535 20.8961 147.847 20.5655C148.073 20.3046 148.253 20.1348 148.385 20.0529L148.382 20.0559Z" fill="white"/>
<path d="M162.027 18.1996V21.2055C162.027 21.2753 162.03 21.3875 162.036 21.5453V21.5968H162.552V22.9193H162.158L161.776 22.437H161.745C161.492 22.7586 161.155 22.9193 160.743 22.9193H158.364L157.982 22.437H157.952C157.698 22.7586 157.362 22.9193 156.949 22.9193H154.571L154.189 22.437H154.158C153.904 22.7586 153.568 22.9193 153.155 22.9193H150.053V21.5968H152.7C152.798 21.5968 152.844 21.5483 152.844 21.4543V19.3826H154.436V21.2177C154.436 21.2874 154.439 21.3875 154.445 21.5271V21.5999H156.494C156.591 21.5999 156.637 21.5513 156.637 21.4573V18.7911H158.23V21.1722C158.23 21.2874 158.233 21.433 158.239 21.6029H160.287C160.385 21.6029 160.431 21.5544 160.431 21.4603V18.2087H162.024L162.027 18.1996Z" fill="white"/>
<path d="M165.925 15.5728V21.6453C165.925 21.9456 165.827 22.2156 165.635 22.4552C165.372 22.7646 165.038 22.9163 164.632 22.9163H162.471V21.5938H164.176C164.216 21.5938 164.253 21.5847 164.28 21.5634C164.314 21.5361 164.332 21.4997 164.332 21.4512V15.5728H165.925Z" fill="white"/>
<path d="M168.944 15.5728V22.528L168.137 23.1741H167.352V15.5728H168.944Z" fill="white"/>
<path d="M181.215 18.1995V21.6453C181.215 21.9608 181.111 22.2338 180.906 22.4673C180.652 22.7676 180.328 22.9193 179.934 22.9193H174.248C173.765 22.9193 173.34 22.7646 172.977 22.4582C172.509 22.0609 172.273 21.5513 172.273 20.9295V19.5857L173.08 18.9396H173.866V20.9295C173.866 21.1357 173.939 21.3026 174.083 21.433C174.215 21.5422 174.352 21.5968 174.496 21.5968H179.469C179.573 21.5968 179.625 21.5482 179.625 21.4542V18.2026H181.218L181.215 18.1995ZM175.819 17.9205C176.046 17.9205 176.238 17.9993 176.394 18.1571C176.55 18.3148 176.626 18.5029 176.626 18.7213C176.626 18.9396 176.55 19.1368 176.394 19.2915C176.238 19.4462 176.049 19.522 175.819 19.522C175.59 19.522 175.41 19.4462 175.251 19.2915C175.092 19.1368 175.012 18.9487 175.012 18.7213C175.012 18.4938 175.092 18.3148 175.251 18.1571C175.41 17.9993 175.599 17.9205 175.819 17.9205ZM177.669 17.9205C177.895 17.9205 178.088 17.9993 178.244 18.1571C178.399 18.3148 178.476 18.5029 178.476 18.7213C178.476 18.9396 178.399 19.1368 178.244 19.2915C178.088 19.4462 177.898 19.522 177.669 19.522C177.44 19.522 177.259 19.4462 177.1 19.2915C176.941 19.1368 176.862 18.9487 176.862 18.7213C176.862 18.4938 176.941 18.3148 177.1 18.1571C177.259 17.9993 177.449 17.9205 177.669 17.9205Z" fill="white"/>
<path d="M184.235 15.5728V22.528L183.428 23.1741H182.643V15.5728H184.235Z" fill="white"/>
<path d="M187.998 18.1996V22.528C187.998 23.4593 187.695 24.169 187.087 24.6604C186.735 24.9546 186.319 25.1609 185.837 25.2762C185.595 25.3308 185.326 25.3581 185.029 25.3581L184.76 25.3368L184.109 24.527V23.984C184.131 23.9901 184.167 23.9961 184.222 24.0052C184.403 24.0386 184.559 24.0568 184.699 24.0568C185.271 24.0416 185.696 23.9021 185.971 23.6352C186.252 23.3561 186.396 22.9224 186.396 22.343V18.1996H187.998Z" fill="white"/>
<path d="M191.015 15.5728V21.4512C191.015 21.4512 191.018 21.4846 191.024 21.5119L191.033 21.521C191.054 21.5695 191.094 21.5938 191.158 21.5938H191.54V22.9163H190.703C190.363 22.9163 190.07 22.798 189.813 22.5583C189.55 22.3066 189.422 22.0002 189.422 21.6453V15.5728H191.015Z" fill="white"/>
<path d="M193.975 18.3118C194.733 17.9782 195.488 17.8083 196.24 17.8083C197.178 17.8083 197.921 18.0964 198.474 18.6697C198.969 19.1824 199.22 19.8466 199.22 20.6596V21.2662C199.22 21.336 199.223 21.4452 199.229 21.5938H199.559V22.9163H199.352L198.969 22.4431H198.939C198.841 22.5523 198.74 22.6403 198.63 22.71C198.422 22.8465 198.199 22.9163 197.958 22.9163H195.289C195.081 22.9163 194.904 22.8678 194.751 22.7737H194.699C194.54 22.8708 194.302 22.9163 193.987 22.9163H191.465V21.5938H193.192C193.109 21.4361 193.054 21.2935 193.027 21.1631C192.987 21.0114 192.966 20.8446 192.966 20.6596C192.966 20.2774 193.079 19.9376 193.308 19.6434C193.473 19.425 193.696 19.2552 193.981 19.1308V18.3088L193.975 18.3118ZM194.717 21.4088C195.041 21.3481 195.203 21.1145 195.203 20.7111C195.203 20.514 195.154 20.3502 195.06 20.2197C194.962 20.0954 194.846 20.0347 194.708 20.0347C194.571 20.0347 194.454 20.1014 194.363 20.2349C194.271 20.3684 194.222 20.5352 194.222 20.7323C194.222 21.1145 194.387 21.342 194.717 21.4088ZM197.624 20.8355C197.624 19.604 197.022 18.9882 195.815 18.9882C195.644 18.9882 195.445 18.9973 195.225 19.0186C195.582 19.1278 195.882 19.331 196.124 19.6252C196.371 19.9194 196.496 20.2652 196.496 20.6626C196.496 20.8476 196.472 21.0205 196.423 21.1843C196.368 21.3633 196.316 21.4998 196.267 21.5938H197.478C197.517 21.5938 197.554 21.5847 197.582 21.5635C197.609 21.5362 197.621 21.4998 197.621 21.4512V20.8355H197.624Z" fill="white"/>
<path d="M201.334 19.9922C201.334 19.4098 201.548 18.9397 201.976 18.5757C202.361 18.2481 202.893 18.0843 203.569 18.0843C204.147 18.0843 204.639 18.2269 205.036 18.515C205.635 18.9457 205.935 19.5979 205.935 20.4745C205.935 21.2601 205.742 21.9183 205.357 22.4431C204.963 22.9618 204.443 23.2226 203.795 23.2226C203.236 23.2226 202.795 23.0164 202.471 22.6069C202.224 22.8131 201.946 22.9163 201.634 22.9163H199.473V21.5938H201.178C201.227 21.5938 201.264 21.5786 201.292 21.5513C201.319 21.5179 201.331 21.4815 201.331 21.4482V19.9922H201.334ZM202.924 21.5938C203.083 21.7909 203.285 21.891 203.535 21.891C203.786 21.891 203.985 21.7758 204.134 21.5422C204.287 21.3086 204.361 21.0023 204.361 20.6201C204.361 20.2106 204.281 19.8982 204.122 19.6859C203.969 19.4948 203.765 19.3977 203.502 19.3977C203.33 19.3977 203.184 19.4584 203.068 19.5827C202.97 19.7071 202.924 19.8466 202.924 20.0043V21.5938Z" fill="white"/>
<path d="M209.76 18.1359C209.94 18.0964 210.188 18.0752 210.506 18.0752C211.353 18.0752 212.037 18.3391 212.554 18.8638C213.016 19.337 213.248 19.9346 213.248 20.6595V21.1631C213.248 21.3541 213.251 21.4997 213.257 21.5938H213.517V22.9163H213.382L213 22.4431H212.97C212.909 22.5129 212.854 22.5705 212.805 22.616C212.563 22.8071 212.291 22.9072 211.989 22.9132H208.721V21.5907H211.512C211.609 21.5907 211.655 21.5422 211.655 21.4482V20.7809C211.655 20.3623 211.527 20.0225 211.267 19.7556C211.007 19.4887 210.671 19.3552 210.258 19.3552C210.044 19.3552 209.879 19.3704 209.763 19.3977V18.1359H209.76Z" fill="white"/>
<path d="M215.943 18.3118C216.701 17.9782 217.456 17.8083 218.208 17.8083C219.147 17.8083 219.89 18.0964 220.443 18.6697C220.938 19.1824 221.189 19.8466 221.189 20.6596V21.2662C221.189 21.336 221.192 21.4452 221.198 21.5938H221.528V22.9163H221.32L220.938 22.4431H220.908C220.81 22.5523 220.709 22.6403 220.599 22.71C220.391 22.8465 220.168 22.9163 219.926 22.9163H217.258C217.05 22.9163 216.873 22.8678 216.72 22.7737H216.668C216.509 22.8708 216.27 22.9163 215.956 22.9163H213.434V21.5938H215.161C215.078 21.4361 215.023 21.2935 214.996 21.1631C214.956 21.0114 214.935 20.8446 214.935 20.6596C214.935 20.2774 215.048 19.9376 215.277 19.6434C215.442 19.425 215.665 19.2552 215.949 19.1308V18.3088L215.943 18.3118ZM216.686 21.4088C217.01 21.3481 217.172 21.1145 217.172 20.7111C217.172 20.514 217.123 20.3502 217.028 20.2197C216.931 20.0954 216.815 20.0347 216.677 20.0347C216.539 20.0347 216.423 20.1014 216.332 20.2349C216.24 20.3684 216.191 20.5352 216.191 20.7323C216.191 21.1145 216.356 21.342 216.686 21.4088ZM219.59 20.8355C219.59 19.604 218.988 18.9882 217.78 18.9882C217.609 18.9882 217.411 18.9973 217.19 19.0186C217.548 19.1278 217.848 19.331 218.089 19.6252C218.337 19.9194 218.462 20.2652 218.462 20.6626C218.462 20.8476 218.438 21.0205 218.389 21.1843C218.334 21.3633 218.282 21.4998 218.233 21.5938H219.443C219.483 21.5938 219.52 21.5847 219.547 21.5635C219.575 21.5362 219.587 21.4998 219.587 21.4512V20.8355H219.59Z" fill="white"/>
<path d="M222.881 20.1166C223.135 19.3643 223.584 18.8184 224.226 18.4756C224.681 18.2238 225.207 18.0964 225.809 18.0964C226.375 18.0964 226.885 18.2481 227.341 18.5484C227.891 18.8972 228.289 19.4189 228.53 20.1166L228.405 20.4351C228.246 20.523 228.035 20.6929 227.775 20.9386C227.527 21.1843 227.344 21.4027 227.228 21.5968H228.634V22.9193H226.204C226.039 22.9193 225.88 22.8374 225.727 22.6736H225.687C225.534 22.8374 225.366 22.9193 225.18 22.9193H221.447V21.5968H224.186C224.076 21.4057 223.896 21.1934 223.648 20.9598C223.379 20.6929 223.165 20.52 223.006 20.4381L222.881 20.1196V20.1166ZM226.882 20.0559C226.778 19.8102 226.586 19.6313 226.305 19.5221C226.133 19.4523 225.944 19.4189 225.736 19.4189C225.467 19.4189 225.226 19.4675 225.012 19.5615C224.77 19.6707 224.608 19.8345 224.526 20.0529C224.663 20.1348 224.859 20.3228 225.116 20.6171C225.406 20.9447 225.592 21.2116 225.675 21.4179H225.736C225.834 21.1782 226.036 20.8961 226.347 20.5655C226.574 20.3046 226.754 20.1348 226.885 20.0529L226.882 20.0559Z" fill="white"/>
<path d="M230.414 19.9922C230.414 19.4098 230.628 18.9397 231.056 18.5757C231.441 18.2481 231.973 18.0843 232.649 18.0843C233.227 18.0843 233.719 18.2269 234.116 18.515C234.715 18.9457 235.015 19.5979 235.015 20.4745C235.015 21.2601 234.822 21.9183 234.437 22.4431C234.043 22.9618 233.523 23.2226 232.875 23.2226C232.316 23.2226 231.876 23.0164 231.552 22.6069C231.304 22.8131 231.026 22.9163 230.714 22.9163H228.553V21.5938H230.258C230.307 21.5938 230.344 21.5786 230.372 21.5513C230.399 21.5179 230.411 21.4815 230.411 21.4482V19.9922H230.414ZM232.007 21.5938C232.166 21.7909 232.368 21.891 232.618 21.891C232.869 21.891 233.068 21.7758 233.218 21.5422C233.37 21.3086 233.444 21.0023 233.444 20.6201C233.444 20.2106 233.364 19.8982 233.205 19.6859C233.052 19.4948 232.848 19.3977 232.585 19.3977C232.414 19.3977 232.267 19.4584 232.151 19.5827C232.053 19.7071 232.007 19.8466 232.007 20.0043V21.5938Z" fill="white"/>
<path d="M43.3873 4.43157L36.2586 16.3887C35.7084 16.0065 35.1276 15.6668 34.5254 15.3634L41.651 3.40936L43.3873 4.42854V4.43157Z" fill="#DC1769"/>
<path d="M37.0439 1.42565L33.1158 14.7568C32.4891 14.5263 31.8411 14.3413 31.1777 14.1987L35.1028 0.864502L37.0408 1.42565H37.0439Z" fill="#E53D7E"/>
<path d="M30.1434 0.0697649L29.6543 13.953C29.159 13.9014 28.6608 13.8772 28.1533 13.8772C27.9821 13.8772 27.8079 13.8802 27.6367 13.8893L28.1258 0L30.1464 0.0697649H30.1434Z" fill="#E84D7D"/>
<path d="M26.1098 14.0227C25.4372 14.1168 24.777 14.2593 24.1381 14.4504L21.1484 0.876603L23.1201 0.448914L26.1098 14.0197V14.0227Z" fill="url(#paint0_linear_3360_134)"/>
<path d="M16.4121 2.53882L22.6879 14.9539C22.0612 15.2118 21.459 15.5151 20.8813 15.8548L14.6055 3.4397L16.4121 2.53882Z" fill="url(#paint1_linear_3360_134)"/>
<path d="M10.4305 6.2121L19.6042 16.7041C19.0632 17.1045 18.5588 17.5413 18.0819 18.0145L8.9082 7.52246L10.4305 6.2121Z" fill="url(#paint2_linear_3360_134)"/>
<path d="M5.55088 11.2352L17.0539 19.152C16.6321 19.6737 16.2469 20.2227 15.9015 20.799L4.39844 12.8822L5.55088 11.2352Z" fill="url(#paint3_linear_3360_134)"/>
<path d="M2.07528 17.2987L15.1924 22.1489C14.9142 22.7525 14.6758 23.3804 14.4832 24.0295L1.36914 19.1763L2.07528 17.2957V17.2987Z" fill="url(#paint4_linear_3360_134)"/>
<path d="M0.213982 24.0295L14.135 25.5127C14.0189 26.1619 13.9455 26.8292 13.9211 27.5026L0 26.0193L0.213982 24.0295Z" fill="url(#paint5_linear_3360_134)"/>
<path d="M13.9487 29.0283C13.9976 29.7016 14.0923 30.3659 14.236 31.009L0.379144 32.9897L0.0917969 31.009L13.9487 29.0313V29.0283Z" fill="url(#paint6_linear_3360_134)"/>
<path d="M14.6427 32.4801C14.8566 33.1202 15.1134 33.742 15.413 34.3335L2.48238 39.6477L1.70898 37.7974L14.6427 32.4771V32.4801Z" fill="url(#paint7_linear_3360_134)"/>
<path d="M16.1733 35.6559C16.5402 36.2171 16.9437 36.754 17.3839 37.2575L6.17427 45.5808L4.9668 43.9792L16.1733 35.6559Z" fill="url(#paint8_linear_3360_134)"/>
<path d="M18.4546 38.3555C18.9467 38.8105 19.4725 39.2321 20.0258 39.6113L11.2403 50.4279L9.66602 49.1721L18.4546 38.3555Z" fill="url(#paint9_linear_3360_134)"/>
<path d="M21.3312 40.4182C21.9181 40.7336 22.5325 41.0157 23.1623 41.2493L17.345 53.8828L15.5078 53.0486L21.3281 40.4182H21.3312Z" fill="url(#paint10_linear_3360_134)"/>
<path d="M24.6328 41.7073C25.2778 41.868 25.9442 41.9863 26.6198 42.0622L24.1315 55.73L22.1445 55.3721L24.6328 41.7073Z" fill="url(#paint11_linear_3360_134)"/>
<path d="M31.1612 55.8574L29.1467 56L28.1562 42.141C28.8379 42.141 29.5105 42.0925 30.1677 41.9985L31.1612 55.8574Z" fill="url(#paint12_linear_3360_134)"/>
<path d="M38.0027 54.2529L36.086 54.8868L31.6719 41.7012C32.3322 41.5374 32.9711 41.3251 33.5885 41.0703L38.0027 54.2498V54.2529Z" fill="url(#paint13_linear_3360_134)"/>
<path d="M44.2398 51.0254L42.5401 52.1083L34.9805 40.4181C35.5766 40.0936 36.1421 39.7296 36.6801 39.3353L44.2398 51.0254Z" fill="url(#paint14_linear_3360_134)"/>
</g>
<defs>
<linearGradient id="paint0_linear_3360_134" x1="22.0502" y1="1.10106" x2="25.2314" y2="14.0979" gradientUnits="userSpaceOnUse">
<stop stop-color="#E45225"/>
<stop offset="0.49" stop-color="#E45324"/>
<stop offset="0.67" stop-color="#E65A24"/>
<stop offset="0.8" stop-color="#E96624"/>
<stop offset="0.9" stop-color="#ED7723"/>
<stop offset="0.98" stop-color="#F38D22"/>
<stop offset="1" stop-color="#F59222"/>
</linearGradient>
<linearGradient id="paint1_linear_3360_134" x1="15.6142" y1="2.91798" x2="21.4731" y2="15.2472" gradientUnits="userSpaceOnUse">
<stop stop-color="#E45225"/>
<stop offset="0.37" stop-color="#E45424"/>
<stop offset="0.58" stop-color="#E65C24"/>
<stop offset="0.75" stop-color="#EA6A23"/>
<stop offset="0.89" stop-color="#EF7D22"/>
<stop offset="1" stop-color="#F59222"/>
</linearGradient>
<linearGradient id="paint2_linear_3360_134" x1="10.2746" y1="6.54576" x2="17.8714" y2="17.3361" gradientUnits="userSpaceOnUse">
<stop stop-color="#E45225"/>
<stop offset="0.26" stop-color="#E45524"/>
<stop offset="0.51" stop-color="#E76024"/>
<stop offset="0.74" stop-color="#EC7323"/>
<stop offset="0.97" stop-color="#F38D22"/>
<stop offset="1" stop-color="#F59222"/>
</linearGradient>
<linearGradient id="paint3_linear_3360_134" x1="4.94868" y1="11.9874" x2="16.058" y2="19.8579" gradientUnits="userSpaceOnUse">
<stop stop-color="#E45225"/>
<stop offset="0.29" stop-color="#E45524"/>
<stop offset="0.52" stop-color="#E75F24"/>
<stop offset="0.73" stop-color="#EB6F23"/>
<stop offset="0.93" stop-color="#F28722"/>
<stop offset="1" stop-color="#F59222"/>
</linearGradient>
<linearGradient id="paint4_linear_3360_134" x1="0.785276" y1="19.1368" x2="13.9491" y2="21.8585" gradientUnits="userSpaceOnUse">
<stop stop-color="#E45225"/>
<stop offset="0.29" stop-color="#E45524"/>
<stop offset="0.52" stop-color="#E75F24"/>
<stop offset="0.73" stop-color="#EB6F23"/>
<stop offset="0.93" stop-color="#F28722"/>
<stop offset="1" stop-color="#F59222"/>
</linearGradient>
<linearGradient id="paint5_linear_3360_134" x1="7.06752" y1="69.5162" x2="7.06752" y2="-4.77736" gradientUnits="userSpaceOnUse">
<stop stop-color="#0E8C45"/>
<stop offset="0.19" stop-color="#6CAB43"/>
<stop offset="0.43" stop-color="#F7EC0F"/>
<stop offset="0.65" stop-color="#E55525"/>
<stop offset="0.76" stop-color="#E45225"/>
<stop offset="1" stop-color="#DC1769"/>
</linearGradient>
<linearGradient id="paint6_linear_3360_134" x1="7.16237" y1="56.2669" x2="7.16237" y2="0.791655" gradientUnits="userSpaceOnUse">
<stop stop-color="#0E8C45"/>
<stop offset="0.19" stop-color="#6CAB43"/>
<stop offset="0.43" stop-color="#F7EC0F"/>
<stop offset="0.59" stop-color="#E55525"/>
<stop offset="0.76" stop-color="#E45225"/>
<stop offset="1" stop-color="#DC1769"/>
</linearGradient>
<linearGradient id="paint7_linear_3360_134" x1="8.55946" y1="56.267" x2="8.55946" y2="0.79169" gradientUnits="userSpaceOnUse">
<stop stop-color="#0E8C45"/>
<stop offset="0.19" stop-color="#6CAB43"/>
<stop offset="0.43" stop-color="#F7EC0F"/>
<stop offset="0.59" stop-color="#E55525"/>
<stop offset="0.76" stop-color="#E45225"/>
<stop offset="1" stop-color="#DC1769"/>
</linearGradient>
<linearGradient id="paint8_linear_3360_134" x1="11.1753" y1="56.2669" x2="11.1753" y2="0.791681" gradientUnits="userSpaceOnUse">
<stop stop-color="#0E8C45"/>
<stop offset="0.19" stop-color="#6CAB43"/>
<stop offset="0.43" stop-color="#F7EC0F"/>
<stop offset="0.59" stop-color="#E55525"/>
<stop offset="0.76" stop-color="#E45225"/>
<stop offset="1" stop-color="#DC1769"/>
</linearGradient>
<linearGradient id="paint9_linear_3360_134" x1="14.8444" y1="56.2669" x2="14.8444" y2="0.791662" gradientUnits="userSpaceOnUse">
<stop stop-color="#0E8C45"/>
<stop offset="0.19" stop-color="#6CAB43"/>
<stop offset="0.43" stop-color="#F7EC0F"/>
<stop offset="0.59" stop-color="#E55525"/>
<stop offset="0.76" stop-color="#E45225"/>
<stop offset="1" stop-color="#DC1769"/>
</linearGradient>
<linearGradient id="paint10_linear_3360_134" x1="19.3381" y1="56.2669" x2="19.3381" y2="0.791675" gradientUnits="userSpaceOnUse">
<stop stop-color="#0E8C45"/>
<stop offset="0.19" stop-color="#6CAB43"/>
<stop offset="0.43" stop-color="#F7EC0F"/>
<stop offset="0.59" stop-color="#E55525"/>
<stop offset="0.76" stop-color="#E45225"/>
<stop offset="1" stop-color="#DC1769"/>
</linearGradient>
<linearGradient id="paint11_linear_3360_134" x1="24.3822" y1="56.2669" x2="24.3822" y2="0.791667" gradientUnits="userSpaceOnUse">
<stop stop-color="#0E8C45"/>
<stop offset="0.19" stop-color="#6CAB43"/>
<stop offset="0.43" stop-color="#F7EC0F"/>
<stop offset="0.59" stop-color="#E55525"/>
<stop offset="0.76" stop-color="#E45225"/>
<stop offset="1" stop-color="#DC1769"/>
</linearGradient>
<linearGradient id="paint12_linear_3360_134" x1="29.6572" y1="56.2669" x2="29.6572" y2="0.79168" gradientUnits="userSpaceOnUse">
<stop stop-color="#0E8C45"/>
<stop offset="0.19" stop-color="#6CAB43"/>
<stop offset="0.43" stop-color="#F7EC0F"/>
<stop offset="0.59" stop-color="#E55525"/>
<stop offset="0.76" stop-color="#E45225"/>
<stop offset="1" stop-color="#DC1769"/>
</linearGradient>
<linearGradient id="paint13_linear_3360_134" x1="34.8388" y1="56.2669" x2="34.8388" y2="0.791683" gradientUnits="userSpaceOnUse">
<stop stop-color="#0E8C45"/>
<stop offset="0.19" stop-color="#6CAB43"/>
<stop offset="0.43" stop-color="#F7EC0F"/>
<stop offset="0.59" stop-color="#E55525"/>
<stop offset="0.76" stop-color="#E45225"/>
<stop offset="1" stop-color="#DC1769"/>
</linearGradient>
<linearGradient id="paint14_linear_3360_134" x1="39.6086" y1="56.2669" x2="39.6086" y2="0.791662" gradientUnits="userSpaceOnUse">
<stop stop-color="#0E8C45"/>
<stop offset="0.19" stop-color="#6CAB43"/>
<stop offset="0.43" stop-color="#F7EC0F"/>
<stop offset="0.59" stop-color="#E55525"/>
<stop offset="0.76" stop-color="#E45225"/>
<stop offset="1" stop-color="#DC1769"/>
</linearGradient>
<clipPath id="clip0_3360_134">
<rect width="235.016" height="56" fill="white"/>
</clipPath>
</defs>
</svg>
